# xmcd
# Track frame offsets:
# 150
# 14102
# 35480
# 51683
# 69460
# 86638
# 99240
# 116416
# 135169
# 152571
# 172072
# 187674
# 203500
# 227351
# 245278
#
# Disc length: 3480 seconds
# Revision: 0
# Processed by: cddbd v1.5.1PL0 Copyright (c) Steve Scherf et al.
# Submitted via: VisiTrax 2.9.10.228 - For more info visit www.synapsa.com
#
DISCID=b90d960f
DTITLE=Various Artist - CB60005
DYEAR=1900
DGENRE=Karaoke
TTITLE0=Strait, George - Blue Clear Sky
TTITLE1=Twain, Shania - If You're Not In It For Love
TTITLE2=Raye, Collin - I Think About You
TTITLE3=Keith, Toby - Does That Blue Moon Ever Shine On You
TTITLE4=Hill, Faith - Someone Else's Dream
TTITLE5=McCoy, Neal - You Gotta Love That
TTITLE6=Murphy, David Lee - Every Time I Get Around You
TTITLE7=Clark, Terri - If I Were You
TTITLE8=McGraw, Tim - All I Want Is A Life
TTITLE9=Montgomery, John - Long As I Live
TTITLE10=Messina, Jo Dee - Heads Carolina, Tails California
TTITLE11=Lawrence, Tracy - If You Loved Me
TTITLE12=Judd, Wynonna - To Be Loved By You
TTITLE13=Jackson, Alan - I'll Try
TTITLE14=Diamond Rio - That's What I Get For Lovin' You
EXTD=
EXTT0=
EXTT1=
EXTT2=
EXTT3=
EXTT4=
EXTT5=
EXTT6=
EXTT7=
EXTT8=
EXTT9=
EXTT10=
EXTT11=
EXTT12=
EXTT13=
EXTT14=
PLAYORDER=
